<?xml version="1.0" encoding="utf-8"?>
<!-- Generator: Adobe Illustrator 18.1.0, SVG Export Plug-In . SVG Version: 6.00 Build 0)  -->
<svg version="1.1" id="Layer_1" xmlns="http://www.w3.org/2000/svg" xmlns:xlink="http://www.w3.org/1999/xlink" x="0px" y="0px"
	 viewBox="0 0 432.8 140.2" enable-background="new 0 0 432.8 140.2" xml:space="preserve">
<g>
	<path d="M40.3,51.1L44.5,39h-6.8l-4.1,12.2h-6.8L30.9,39H24l1.9-5.8h7.1l3.9-12h-7.1l1.8-5.8h7.3l4-12.3h6.8l-4,12.3h6.8l4-12.3
		h6.8L59,15.4h7l-1.7,5.8h-7.2l-4,12h7.3L58.6,39h-7.4l-4,12.2H40.3z M50.3,21.2h-6.8l-3.9,12h6.7L50.3,21.2z"/>
	<path d="M72,51.1v-48h10.2v48H72z"/>
	<path d="M124.8,51.1l-22.9-31.3v31.3H91.7v-48h10.5l22.3,30.2V3.1h10.2v48H124.8z"/>
	<path d="M155.3,51.1v-39h-14v-9h38.3v9h-14v39H155.3z"/>
	<path d="M186.1,51.1v-48h34v9h-23.8v10.2h23.3v9h-23.3v10.9h23.8v9H186.1z"/>
	<path d="M255.2,51.1l-9.4-17.1h-7.5v17.1h-10.2v-48h22.5c10,0,16.1,6.6,16.1,15.5c0,8.5-5.3,13-10.5,14.3L267,51.1H255.2z
		 M256.2,18.6c0-4-3.1-6.5-7.2-6.5h-10.7v13H249C253.1,25.1,256.2,22.6,256.2,18.6z"/>
	<path d="M307.5,51.1l-22.9-31.3v31.3h-10.2v-48h10.5l22.3,30.2V3.1h10.2v48H307.5z"/>
	<path d="M326.9,51.1v-48h34v9h-23.8v10.2h23.3v9h-23.3v10.9h23.8v9H326.9z"/>
	<path d="M379.9,51.1v-39h-14v-9h38.3v9h-14v39H379.9z"/>
	<path d="M2.9,137.5v-48h34v9H13.2v10.2h23.3v9H13.2v10.9h23.8v9H2.9z"/>
	<path d="M86.7,137.5v-33.6l-13.5,33.6h-4.5l-13.5-33.6v33.6H44.9v-48h14.3l11.7,29l11.7-29H97v48H86.7z"/>
	<path d="M106.5,137.5v-48h34v9h-23.8v10.2H140v9h-23.3v10.9h23.8v9H106.5z"/>
	<path d="M175.6,137.5l-9.4-17.1h-7.5v17.1h-10.2v-48h22.5c10,0,16.1,6.6,16.1,15.5c0,8.5-5.3,13-10.5,14.3l10.8,18.3H175.6z
		 M176.6,105c0-4-3.1-6.5-7.2-6.5h-10.7v13h10.7C173.5,111.5,176.6,109,176.6,105z"/>
	<path d="M192.4,113.6c0-15.2,11.5-24.8,25.6-24.8c10,0,16.3,5,19.9,10.7l-8.5,4.6c-2.2-3.4-6.3-6.3-11.4-6.3c-8.7,0-15,6.7-15,15.8
		c0,9.1,6.3,15.8,15,15.8c4.2,0,8.3-1.9,10.2-3.7v-5.8h-12.7V111h22.9v18.4c-4.9,5.5-11.7,9.1-20.4,9.1
		C204,138.5,192.4,128.7,192.4,113.6z"/>
	<path d="M246.6,137.5v-48h34v9h-23.8v10.2h23.3v9h-23.3v10.9h23.8v9H246.6z"/>
	<path d="M321.7,137.5l-22.9-31.3v31.3h-10.2v-48h10.5l22.3,30.2V89.5h10.2v48H321.7z"/>
	<path d="M338.7,113.6c0-14.8,11.2-24.8,25.6-24.8c10.6,0,16.7,5.8,20.1,11.7l-8.8,4.3c-2-3.9-6.3-7-11.3-7c-8.7,0-15,6.7-15,15.8
		c0,9.1,6.3,15.8,15,15.8c5,0,9.3-3,11.3-7l8.8,4.2c-3.5,6-9.5,11.8-20.1,11.8C349.9,138.4,338.7,128.3,338.7,113.6z"/>
	<path d="M402.3,137.5v-19.7l-18.5-28.4h11.7l12,19.3l11.8-19.3h11.7l-18.4,28.4v19.7H402.3z"/>
</g>
<g>
</g>
<g>
</g>
<g>
</g>
<g>
</g>
<g>
</g>
<g>
</g>
</svg>
