<?xml version="1.0" encoding="utf-8"?>
<!-- Generator: Adobe Illustrator 18.1.0, SVG Export Plug-In . SVG Version: 6.00 Build 0)  -->
<svg version="1.1" xmlns="http://www.w3.org/2000/svg" xmlns:xlink="http://www.w3.org/1999/xlink" x="0px" y="0px"
	 viewBox="0 0 474.7 142" enable-background="new 0 0 474.7 142" xml:space="preserve">
<g id="Layer_1" display="none">
</g>
<g id="Layer_2">
	<g>
		<path d="M4.2,52.3v-48h22.5c10.4,0,16.1,7.1,16.1,15.5c0,8.4-5.8,15.5-16.1,15.5H14.4v17.1H4.2z M32.4,19.8c0-4-3-6.5-7.1-6.5
			H14.4v13h10.9C29.4,26.2,32.4,23.7,32.4,19.8z"/>
		<path d="M76.3,52.3l-9.4-17.1h-7.5v17.1H49.2v-48h22.5c10,0,16.1,6.6,16.1,15.5c0,8.5-5.3,13-10.5,14.3L88,52.3H76.3z M77.3,19.8
			c0-4-3.1-6.5-7.2-6.5H59.4v13h10.7C74.2,26.2,77.3,23.8,77.3,19.8z"/>
		<path d="M93.1,28.3c0-14.5,10.6-24.8,25.1-24.8c14.5,0,25.1,10.4,25.1,24.8c0,14.5-10.6,24.8-25.1,24.8
			C103.7,53.2,93.1,42.8,93.1,28.3z M132.8,28.3c0-9-5.8-15.8-14.6-15.8s-14.5,6.8-14.5,15.8c0,8.9,5.7,15.8,14.5,15.8
			S132.8,37.2,132.8,28.3z"/>
		<path d="M159.9,52.3v-39h-14v-9h38.3v9h-14v39H159.9z"/>
		<path d="M190.7,52.3v-48h34v9h-23.8v10.2h23.3v9h-23.3v10.9h23.8v9H190.7z"/>
		<path d="M230.4,28.3c0-14.8,11.2-24.8,25.6-24.8c10.6,0,16.7,5.8,20.1,11.7l-8.8,4.3c-2-3.9-6.3-7-11.3-7c-8.7,0-15,6.7-15,15.8
			c0,9.1,6.3,15.8,15,15.8c5,0,9.3-3,11.3-7l8.8,4.2c-3.5,6-9.5,11.8-20.1,11.8C241.5,53.2,230.4,43.1,230.4,28.3z"/>
		<path d="M293.2,52.3v-39h-14v-9h38.3v9h-14v39H293.2z"/>
		<path d="M375.6,52.3L352.7,21v31.3h-10.2v-48H353l22.3,30.2V4.3h10.2v48H375.6z"/>
		<path d="M395,52.3v-48h34v9h-23.8v10.2h23.3v9h-23.3v10.9H429v9H395z"/>
		<path d="M448,52.3v-39h-14v-9h38.3v9h-14v39H448z"/>
		<path d="M59.5,138.7l-22.9-31.3v31.3H26.3v-48h10.5l22.3,30.2V90.7h10.2v48H59.5z"/>
		<path d="M78.8,138.7v-48h34v9H89v10.2h23.3v9H89v10.9h23.8v9H78.8z"/>
		<path d="M120.8,119.5V90.7h10.4v28.5c0,6.7,3.9,11.3,11.3,11.3s11.2-4.6,11.2-11.3V90.7h10.4v28.8c0,12-7.1,20.1-21.7,20.1
			S120.8,131.4,120.8,119.5z"/>
		<path d="M184.7,138.7v-39h-14v-9h38.3v9h-14v39H184.7z"/>
		<path d="M242.6,138.7l-9.4-17.1h-7.5v17.1h-10.2v-48h22.5c10,0,16.1,6.6,16.1,15.5c0,8.5-5.3,13-10.5,14.3l10.8,18.3H242.6z
			 M243.6,106.2c0-4-3.1-6.5-7.2-6.5h-10.7v13h10.7C240.5,112.6,243.6,110.2,243.6,106.2z"/>
		<path d="M294.9,138.7l-3-8.1h-20.6l-3,8.1h-11.7l18.6-48H288l18.5,48H294.9z M281.6,100.9l-7.5,20.7h15L281.6,100.9z"/>
		<path d="M311,138.7v-48h10.2v39h20.3v9H311z"/>
		<path d="M348.7,138.7v-48h10.2v48H348.7z"/>
		<path d="M379.5,138.7v-39h-14v-9h38.3v9h-14v39H379.5z"/>
		<path d="M423.7,138.7V119l-18.5-28.4h11.7l12,19.3l11.8-19.3h11.7L433.9,119v19.7H423.7z"/>
	</g>
	<g>
	</g>
	<g>
	</g>
	<g>
	</g>
	<g>
	</g>
	<g>
	</g>
	<g>
	</g>
</g>
</svg>
