<?xml version="1.0" encoding="utf-8"?>
<!-- Generator: Adobe Illustrator 18.1.0, SVG Export Plug-In . SVG Version: 6.00 Build 0)  -->
<svg version="1.1" xmlns="http://www.w3.org/2000/svg" xmlns:xlink="http://www.w3.org/1999/xlink" x="0px" y="0px"
	 viewBox="0 0 344.8 143.7" enable-background="new 0 0 344.8 143.7" xml:space="preserve">
<g id="Layer_1" display="none">
</g>
<g id="Layer_2">
	<g>
		<path d="M6.1,47.3l5.5-7.8C15,43,20.3,46,26.9,46c5.6,0,8.4-2.6,8.4-5.3c0-8.5-27.7-2.7-27.7-20.7c0-8,6.9-14.6,18.2-14.6
			c7.6,0,14,2.3,18.7,6.7l-5.7,7.5c-3.9-3.6-9.1-5.3-14-5.3c-4.4,0-6.8,1.9-6.8,4.8c0,7.6,27.6,2.5,27.6,20.4
			c0,8.8-6.3,15.4-19.2,15.4C17.2,54.9,10.6,51.8,6.1,47.3z"/>
		<path d="M84.9,54l-3-8.1H61.4l-3,8.1H46.7L65.3,6h12.8l18.5,48H84.9z M71.7,16.2l-7.5,20.7h15L71.7,16.2z"/>
		<path d="M111.1,54L92.6,6h11.7l13.3,36.9L130.8,6h11.7L124,54H111.1z"/>
		<path d="M146.9,54V6h34v9h-23.8v10.2h23.3v9h-23.3V45h23.8v9H146.9z"/>
		<path d="M218.4,54V15h-14V6h38.3v9h-14v39H218.4z"/>
		<path d="M282.1,54V33.9h-22.7V54h-10.2V6h10.2v18.9h22.7V6h10.3v48H282.1z"/>
		<path d="M301.9,54V6h34v9h-23.8v10.2h23.3v9h-23.3V45h23.8v9H301.9z"/>
		<path d="M7.2,140.4v-48h10.2v48H7.2z"/>
		<path d="M60.1,140.4l-22.9-31.3v31.3H26.9v-48h10.5l22.3,30.2V92.4h10.2v48H60.1z"/>
		<path d="M90.5,140.4v-39h-14v-9h38.3v9h-14v39H90.5z"/>
		<path d="M121.3,140.4v-48h34v9h-23.8v10.2h23.3v9h-23.3v10.9h23.8v9H121.3z"/>
		<path d="M190.5,140.4l-9.4-17.1h-7.5v17.1h-10.2v-48h22.5c10,0,16.1,6.6,16.1,15.5c0,8.5-5.3,13-10.5,14.3l10.8,18.3H190.5z
			 M191.5,107.9c0-4-3.1-6.5-7.2-6.5h-10.7v13h10.7C188.4,114.4,191.5,111.9,191.5,107.9z"/>
		<path d="M242.7,140.4l-22.9-31.3v31.3h-10.2v-48h10.5l22.2,30.2V92.4h10.2v48H242.7z"/>
		<path d="M262.1,140.4v-48h34v9h-23.8v10.2h23.3v9h-23.3v10.9h23.8v9H262.1z"/>
		<path d="M315.2,140.4v-39h-14v-9h38.3v9h-14v39H315.2z"/>
	</g>
	<g>
	</g>
	<g>
	</g>
	<g>
	</g>
	<g>
	</g>
	<g>
	</g>
	<g>
	</g>
</g>
</svg>
