<?xml version="1.0" encoding="utf-8"?>
<!-- Generator: Adobe Illustrator 18.1.0, SVG Export Plug-In . SVG Version: 6.00 Build 0)  -->
<svg version="1.1" id="Layer_1" xmlns="http://www.w3.org/2000/svg" xmlns:xlink="http://www.w3.org/1999/xlink" x="0px" y="0px"
	 viewBox="0 0 586.2 228.2" enable-background="new 0 0 586.2 228.2" xml:space="preserve">
<g>
	<path d="M36.7,52.3L13.8,21v31.3H3.5v-48H14l22.3,30.2V4.3h10.2v48H36.7z"/>
	<path d="M56,52.3v-48h34v9H66.2v10.2h23.3v9H66.2v10.9H90v9H56z"/>
	<path d="M109.1,52.3v-39H95v-9h38.3v9h-14v39H109.1z"/>
	<path d="M191.5,52.3L168.6,21v31.3h-10.2v-48h10.5l22.3,30.2V4.3h10.2v48H191.5z"/>
	<path d="M210.8,52.3v-48h34v9H221v10.2h23.3v9H221v10.9h23.8v9H210.8z"/>
	<path d="M252.8,33.1V4.3h10.4v28.5c0,6.7,3.9,11.3,11.3,11.3s11.2-4.6,11.2-11.3V4.3h10.4v28.8c0,12-7.1,20.1-21.7,20.1
		S252.8,45,252.8,33.1z"/>
	<path d="M316.7,52.3v-39h-14v-9h38.3v9h-14v39H316.7z"/>
	<path d="M374.6,52.3l-9.4-17.1h-7.5v17.1h-10.2v-48h22.5c10,0,16.1,6.6,16.1,15.5c0,8.5-5.3,13-10.5,14.3l10.8,18.3H374.6z
		 M375.6,19.8c0-4-3.1-6.5-7.2-6.5h-10.7v13h10.7C372.5,26.2,375.6,23.8,375.6,19.8z"/>
	<path d="M426.9,52.3l-3-8.1h-20.6l-3,8.1h-11.7l18.6-48H420l18.5,48H426.9z M413.6,14.5l-7.5,20.7h15L413.6,14.5z"/>
	<path d="M443,52.3v-48h10.2v39h20.3v9H443z"/>
	<path d="M480.7,52.3v-48h10.2v48H480.7z"/>
	<path d="M511.5,52.3v-39h-14v-9h38.3v9h-14v39H511.5z"/>
	<path d="M555.7,52.3V32.6L537.2,4.3h11.7l12,19.3l11.8-19.3h11.7l-18.4,28.4v19.7H555.7z"/>
	<path d="M64.2,225.1v-48h34v9H74.4v10.2h23.3v9H74.4v19.9H64.2z"/>
	<path d="M132.4,225.1L123,208h-7.5v17.1h-10.2v-48h22.5c10,0,16.1,6.6,16.1,15.5c0,8.5-5.3,13-10.5,14.3l10.8,18.3H132.4z
		 M133.4,192.6c0-4-3.1-6.5-7.2-6.5h-10.7v13h10.7C130.3,199,133.4,196.6,133.4,192.6z"/>
	<path d="M151.6,225.1v-48h34v9h-23.8v10.2H185v9h-23.3v10.9h23.8v9H151.6z"/>
	<path d="M193.5,225.1v-48h34v9h-23.8v10.2H227v9h-23.3v10.9h23.8v9H193.5z"/>
	<path d="M250.7,218.3l5.5-7.8c3.4,3.5,8.6,6.5,15.3,6.5c5.6,0,8.4-2.6,8.4-5.3c0-8.5-27.7-2.7-27.7-20.7c0-8,6.9-14.6,18.2-14.6
		c7.6,0,14,2.3,18.7,6.7l-5.7,7.5c-3.9-3.6-9.1-5.3-14-5.3c-4.4,0-6.8,1.9-6.8,4.8c0,7.6,27.6,2.5,27.6,20.5
		c0,8.8-6.3,15.4-19.2,15.4C261.8,226,255.2,222.9,250.7,218.3z"/>
	<path d="M297.1,225.1v-48h22.5c10.4,0,16.1,7.1,16.1,15.5c0,8.4-5.8,15.5-16.1,15.5h-12.2v17.1H297.1z M325.3,192.6
		c0-4-3-6.5-7.1-6.5h-10.9v13h10.9C322.3,199,325.3,196.5,325.3,192.6z"/>
	<path d="M342.1,225.1v-48h34v9h-23.8v10.2h23.3v9h-23.3v10.9h23.8v9H342.1z"/>
	<path d="M384,225.1v-48h34v9h-23.8v10.2h23.3v9h-23.3v10.9H418v9H384z"/>
	<path d="M423.7,201.1c0-14.8,11.2-24.8,25.6-24.8c10.6,0,16.7,5.8,20.1,11.7l-8.8,4.3c-2-3.9-6.3-7-11.3-7c-8.7,0-15,6.7-15,15.8
		c0,9.1,6.3,15.8,15,15.8c5,0,9.3-3,11.3-7l8.8,4.2c-3.5,6-9.5,11.8-20.1,11.8C434.9,226,423.7,215.9,423.7,201.1z"/>
	<path d="M508.4,225.1v-20.2h-22.7v20.2h-10.2v-48h10.2v18.9h22.7v-18.9h10.3v48H508.4z"/>
</g>
<g>
	<path d="M231.5,102.1V83.7H334v18.4H231.5z M231.5,145.2v-17.9H334v17.9H231.5z"/>
</g>
<g>
</g>
<g>
</g>
<g>
</g>
<g>
</g>
<g>
</g>
<g>
</g>
</svg>
